<svg width="18" height="18" viewBox="0 0 18 18" fill="none" xmlns="http://www.w3.org/2000/svg">
<path fill-rule="evenodd" clip-rule="evenodd" d="M0.978793 2.6565C0.914406 2.39975 0.925055 2.12991 1.00947 1.87903C1.09389 1.62815 1.24854 1.40676 1.45505 1.24116C1.66155 1.07556 1.91124 0.972704 2.17447 0.944802C2.4377 0.916899 2.70341 0.965124 2.94004 1.08375L16.2975 7.7625C16.5275 7.87726 16.721 8.05384 16.8562 8.27243C16.9914 8.49102 17.0631 8.74297 17.0631 9C17.0631 9.25703 16.9914 9.50898 16.8562 9.72757C16.721 9.94616 16.5275 10.1227 16.2975 10.2375L2.94004 16.9162C2.70341 17.0349 2.4377 17.0831 2.17447 17.0552C1.91124 17.0273 1.66155 16.9244 1.45505 16.7588C1.24854 16.5932 1.09389 16.3719 1.00947 16.121C0.925055 15.8701 0.914406 15.6003 0.978793 15.3435L2.37754 9.75L10.5 9L2.37754 8.25L0.978793 2.6565Z" fill="white"/>
</svg>
